P1
# Created by GIMP version 3.0.8 PNM plug-in
16 256
0000000000000000001111001111100001100110100011001100001100000110100000
0000000010110000000000011001111111111111000000000000010000000001000000
0000000000000000000000000000000000000000000000000000000000000000000000
0000000000000000000000000000000000000000000000000000000000000000111100
1111100001100110100011001100001100000110100000000000001011000000000001
1001111111111111000001000000000000000000001000000000000000000100000000
0100000000000000000000000000000000000000000000000000000000000000000000
0000000000000000000000000000000000000000111100111110000110011010001100
1100001100000110100000000000001011000000000001100111111111111100000000
0000100000000000000000000000010000000000000000000010000000000000000001
0000000001000000000000000000000000000000000000000000000000000000000000
0000000000000000111100111110000110011010001100110000110000011010000000
0000001011000000000001100111111111111100000000000000000000000010000000
0000000000001000000000000000000000000100000000000000000000100000000000
0000000100000000010000000000000000000000000000000000000000000000000000
0000000011110011111000011001101000110011000011000001101000000000000010
1100000000000110011111111111110000100000000010000000000100000000000000
0000000000000000100000000000000000001000000001000000000000000000001000
0000000001000001000000000000000000000000000000000000001111001111100001
1001101000110011000011000001101000000000000010110000000000011001111111
1111110000000000010000000000010000000000001000000000100000000001000000
0000000000000000000000001000000000000000000010000000010100100100000000
0000000000000000000000000000001111001111100001100110100011001100001100
0001101000000000000010110000000000011001111111111111000000100000000000
0000000000000100000000000100000000000100000000000010000000001000000000
0100000000000000000000000000010100101100000000000000000000000000000000
0000001111001111100001100110100011001100001100000110100000000000001011
0000000000011001111111111111000000000000000000000000000000000000001000
0000000000000000000001000000000001000000000001000000000000100000000010
0000010101101100000000000000000000001111001111100001100110100011001100
0011000001101000000000000010110000000000011001111111111111000000000000
0000000000000000000000000000000000000000000000000000000000000000000000
0000100000000000000000000000010000000000010000000011010110111000000000
0000000000001111001111100001100110100011001100001100000110100000000000
0010110000000000011001111111111111000000000000000000000000000000000000
0000000000000000000000000000000000000000000000000000000000000000000000
0000000000001000000000000011011111111100000000000000000000111100111110
0001100110100011001100001100000110100000000000001011000000000001100111
1111111111000000000000000000000000000000000000000000000000000000000000
0000000000000000000000000000000000000000000000000000000000000000000000
0011111111111100000000000000000000111100111110000110011010001100110000
1100000110100000000000001011000000000001100111111111111100000000000000
0000000000000000000000000000000000000000000000000000000000000000000000
0000000000000000000000000000000000000000000000000000000000000000111100
1111100001100110100011001100001100000110100000000000001011000000000001
1001111111111111000000000000000000000000000000000000000000000000000000
0000000000000000000000000000000000000000000000000000000000000000000000
0000000000000000000000000000000000000000111100111110000110011010001100
1100001100000110100000000000001011000000000001100111111111111100000000
0000000000000000000000000000000000000000000000000000000000000000000000
0000000000000000000000000000000000000000000000000000000000000000000000
0000000000000000111100111110000110011010001100110000110000011010000000
0000001011000000000001100111111111111100000000000000000000000000000000
0000000000000000000000000000000000000000000000000000000000000000000000
0000000000000000000000000000000000000000000000000000000000000011110011
1110000110011010001100110000110000011010000000000000101100000000000110
0111111111111100000000000000000000000000000000000000000000000000000000
0000000000000000000000000000000000000000000000000000000000000000000000
000000000000000000000000000000000000